<?xml version="1.0" encoding="UTF-8"?>
<svg version="1.1" xmlns="http://www.w3.org/2000/svg" width="1142" height="767">
<path d="M0 0 C1.69277069 -0.01052147 1.69277069 -0.01052147 3.41973877 -0.02125549 C7.04028358 -0.03865986 10.6606649 -0.04510743 14.28125 -0.046875 C15.51734009 -0.04754974 16.75343018 -0.04822449 18.02697754 -0.04891968 C35.81578006 -0.03346748 53.19981597 0.27854283 70.78125 3.203125 C72.43833984 3.46851074 72.43833984 3.46851074 74.12890625 3.73925781 C110.77684696 9.71985468 146.24168666 20.21571826 179.78125 36.203125 C181.13162354 36.84314453 181.13162354 36.84314453 182.50927734 37.49609375 C213.3656338 52.2300748 242.2884057 71.40307323 267.78125 94.203125 C268.70164062 95.01265625 269.62203125 95.8221875 270.5703125 96.65625 C277.41451709 102.78711496 283.94484999 109.23491197 290.46875 115.703125 C291.78758179 117.00237915 291.78758179 117.00237915 293.13305664 118.32788086 C299.1189697 124.30591697 304.50478046 130.596727 309.78125 137.203125 C310.64485681 138.23049136 311.51325327 139.2538949 312.390625 140.26953125 C329.08551969 159.73675334 342.79572325 181.58288029 354.78125 204.203125 C355.43625488 205.42926514 355.43625488 205.42926514 356.10449219 206.68017578 C403.20990203 295.51575611 410.68542221 402.29863322 381.53125 497.953125 C369.09012694 537.39538128 350.48268915 575.00146024 325.78125 608.203125 C324.75063568 609.61409682 323.72070049 611.02556491 322.69140625 612.4375 C317.08757423 620.07205023 311.24672812 627.27132584 304.78125 634.203125 C303.6507586 635.48998823 302.52556014 636.7815246 301.40625 638.078125 C292.53466399 648.24648576 283.47145074 658.31228518 273.21484375 667.109375 C271.29569298 668.76052237 269.39642341 670.42809307 267.50390625 672.109375 C200.15237163 731.67601617 111.51386201 764.88423505 -8.78158569 765.84350586 C-58.04247332 762.5821182 -105.61843218 750.30049999 -150.21875 729.203125 C-151.54737061 728.57905762 -151.54737061 728.57905762 -152.90283203 727.94238281 C-177.68214989 716.21093178 -200.81331263 701.31028177 -222.21875 684.203125 C-223.17136719 683.44386719 -224.12398437 682.68460938 -225.10546875 681.90234375 C-231.33515534 676.87167633 -237.31471429 671.60997875 -243.21875 666.203125 C-244.18941406 665.32527344 -245.16007812 664.44742188 -246.16015625 663.54296875 C-255.3488426 655.21599794 -264.16580732 646.6467365 -272.21875 637.203125 C-273.06695312 636.2440625 -273.91515625 635.285 -274.7890625 634.296875 C-340.79607693 559.30785776 -373.33859661 458.8612792 -367.70556641 359.53710938 C-362.39895139 277.82617953 -332.07836376 199.88638137 -279.21875 137.203125 C-278.60569504 136.46780045 -278.60569504 136.46780045 -277.98025513 135.71762085 C-270.81207825 127.12887463 -263.32141105 118.98649256 -255.38208008 111.10571289 C-253.64620269 109.38064023 -251.9213991 107.64500509 -250.19726562 105.90820312 C-243.51321384 99.21577757 -236.66051215 93.05424711 -229.21875 87.203125 C-227.96388342 86.17854594 -226.71100406 85.15152374 -225.4609375 84.12109375 C-163.10776593 33.34675902 -80.93763031 0.33811155 0 0 Z " fill="#273D72" transform="translate(368.21875,-0.203125)"/>
<path d="M0 0 C1.09054687 0.00451172 2.18109375 0.00902344 3.3046875 0.01367188 C5.95318616 0.0252881 8.60156101 0.04161832 11.25 0.0625 C11.25 0.3925 11.25 0.7225 11.25 1.0625 C9.56596069 1.30371582 9.56596069 1.30371582 7.84790039 1.54980469 C3.59547111 2.16098931 -0.65543863 2.78225848 -4.90600586 3.40625 C-6.72951261 3.67258154 -8.55339663 3.93634546 -10.37768555 4.19726562 C-66.67188075 12.25922693 -119.86184429 35.148249 -164.75 70.0625 C-165.30606934 70.49401367 -165.86213867 70.92552734 -166.43505859 71.37011719 C-172.90225471 76.42958761 -178.95244326 81.91378313 -184.96484375 87.49609375 C-187.27647016 89.62616185 -189.6161298 91.70201758 -192 93.75 C-198.81619938 99.67712989 -204.89334817 106.20051473 -210.75 113.0625 C-211.55050781 113.97386719 -212.35101563 114.88523437 -213.17578125 115.82421875 C-246.73345558 154.32358419 -271.34869703 202.00204275 -283.15039062 251.60546875 C-283.67918444 253.77231768 -284.25163295 255.91675371 -284.859375 258.0625 C-291.17934682 281.00885922 -292.97025383 305.09994006 -292.9375 328.8125 C-292.93689575 329.62408569 -292.9362915 330.43567139 -292.93566895 331.27185059 C-292.89020573 353.88037494 -290.80602777 375.81436919 -286.75 398.0625 C-286.59225098 398.97580078 -286.43450195 399.88910156 -286.27197266 400.83007812 C-277.42648388 451.24478098 -252.79740703 500.55432096 -220.75 540.0625 C-220.02941406 540.97386719 -219.30882812 541.88523437 -218.56640625 542.82421875 C-206.12505035 558.37036935 -192.05529005 573.65552479 -176.390625 585.9765625 C-173.62709213 588.15958995 -170.97834902 590.44902976 -168.3125 592.75 C-118.20790506 634.36447102 -55.6926422 656.33164441 8.25 664.0625 C8.25 664.3925 8.25 664.7225 8.25 665.0625 C-38.85927591 666.08684309 -82.61344207 655.70244866 -125.75 637.0625 C-126.99136719 636.52689453 -126.99136719 636.52689453 -128.2578125 635.98046875 C-160.61465253 621.83139759 -189.81273737 600.84147946 -215.75 577.0625 C-216.83954274 576.07779184 -217.92940304 575.09343497 -219.01953125 574.109375 C-224.30033816 569.31950688 -229.45814189 564.56940214 -234.03515625 559.0859375 C-236.06874837 556.68639145 -238.22263092 554.41856449 -240.375 552.125 C-302.49237439 483.95661805 -324.89098251 394.18900838 -321.75 304.0625 C-321.21671532 294.26816185 -319.65999347 284.67540199 -317.75 275.0625 C-317.54101074 273.93199219 -317.33202148 272.80148437 -317.11669922 271.63671875 C-307.56811483 220.19595551 -286.16482971 171.23214604 -253.75 130.0625 C-253.05519531 129.16660156 -252.36039062 128.27070313 -251.64453125 127.34765625 C-249.71280783 124.89018543 -247.74037 122.47268439 -245.75 120.0625 C-244.95207031 119.07894531 -244.15414062 118.09539062 -243.33203125 117.08203125 C-237.01075092 109.41726355 -230.19063983 102.2939889 -223.1875 95.25 C-221.89453003 93.94325317 -221.89453003 93.94325317 -220.57543945 92.61010742 C-214.60824615 86.67115451 -208.32709193 81.31065236 -201.75 76.0625 C-200.57635882 75.08570611 -199.40529853 74.10579197 -198.23828125 73.12109375 C-166.64070028 46.85049667 -129.62690841 27.90595004 -90.75 15.0625 C-89.96866699 14.80388184 -89.18733398 14.54526367 -88.38232422 14.27880859 C-60.21496802 5.12235557 -29.61057716 -0.23761574 0 0 Z " fill="#FBFBFC" transform="translate(372.75,49.9375)"/>
<path d="M0 0 C2.1307446 -0.00216246 4.26095004 -0.02027414 6.39160156 -0.03930664 C29.42799661 -0.13809826 50.69556574 6.36455888 68.66503906 21.18530273 C63.77927398 28.87144537 58.26950545 36.01911745 52.66503906 43.18530273 C48.55294787 42.58353329 45.62037523 40.2398157 42.29003906 37.93530273 C26.2700251 27.21985876 7.13965695 24.62178409 -11.79199219 27.56762695 C-26.96134967 31.03758281 -41.05632752 41.31223532 -49.57714844 54.23217773 C-59.838893 71.4719086 -64.52100599 87.73678282 -64.57519531 107.93359375 C-64.58479795 110.0862652 -64.61583278 112.23793682 -64.64746094 114.39038086 C-64.76836074 130.06099349 -61.87620928 143.91055882 -55.33496094 158.18530273 C-54.89410156 159.16241211 -54.45324219 160.13952148 -53.99902344 161.14624023 C-46.48302238 176.30857762 -33.0943759 187.37920249 -17.33496094 193.18530273 C1.92556166 199.45441401 21.37784469 196.15826637 39.66503906 188.18530273 C40.67760017 187.79419563 40.67760017 187.79419563 41.71061707 187.39518738 C44.15540562 186.2259854 45.80563838 185.1714647 47.66503906 183.18530273 C48.86289521 178.95622226 48.73581973 174.81829698 48.66503906 170.44702148 C48.67591553 169.21111771 48.68679199 167.97521393 48.69799805 166.70185852 C48.71972837 163.42786164 48.7071939 160.15636991 48.67791748 156.88250732 C48.6564807 153.53725235 48.68094963 150.19268065 48.70019531 146.84741211 C48.73680769 140.29176282 48.69898112 133.7424841 48.66503906 127.18530273 C33.15503906 127.18530273 17.64503906 127.18530273 1.66503906 127.18530273 C1.66503906 118.93530273 1.66503906 110.68530273 1.66503906 102.18530273 C26.08503906 102.18530273 50.50503906 102.18530273 75.66503906 102.18530273 C76.10623597 125.57319511 76.10623597 125.57319511 76.20214844 135.56420898 C76.2678407 142.37490421 76.34543426 149.18396862 76.49487305 155.9934082 C76.61464235 161.48545131 76.68021442 166.97574567 76.70868874 172.46899414 C76.72897145 174.56155939 76.76858346 176.65403172 76.82806969 178.74584961 C77.27564952 195.14111632 77.27564952 195.14111632 73.2800293 200.21235657 C70.47712506 202.28546882 67.84287889 203.77280601 64.66503906 205.18530273 C63.35934026 205.96007178 62.05888983 206.74383517 60.76660156 207.54077148 C31.6627224 222.87753477 0.38960867 227.10870848 -31.55371094 217.56811523 C-43.47445172 213.45773269 -54.1026485 206.68916513 -63.33496094 198.18530273 C-63.95242188 197.64776367 -64.56988281 197.11022461 -65.20605469 196.55639648 C-82.39633448 180.71593081 -94.13366803 153.40671912 -95.44644165 130.21594238 C-95.60961369 125.60109047 -95.61985281 120.98857249 -95.59570312 116.37133789 C-95.58504162 113.95359865 -95.59561929 111.53661237 -95.60839844 109.11889648 C-95.63961316 77.37352002 -85.94558494 48.81105303 -63.58496094 25.87280273 C-46.36403544 8.83285325 -24.08430674 -0.00272817 0 0 Z " fill="#FBFBFC" transform="translate(458.3349609375,267.814697265625)"/>
<path d="M0 0 C-3.84560534 2.56373689 -7.45848618 2.67371243 -11.9375 3.1875 C-52.83129663 8.50128148 -94.03160324 24.63656922 -128 48 C-128.58330078 48.4007373 -129.16660156 48.80147461 -129.76757812 49.21435547 C-141.54773416 57.35054199 -152.43467298 66.33891268 -163 76 C-163.98226562 76.87785156 -164.96453125 77.75570312 -165.9765625 78.66015625 C-176.91738434 88.47006748 -186.10036678 99.35582273 -195 111 C-195.45133301 111.58378418 -195.90266602 112.16756836 -196.36767578 112.76904297 C-204.49271317 123.31255996 -211.37704614 134.46371036 -218 146 C-218.56630127 146.97356445 -218.56630127 146.97356445 -219.14404297 147.96679688 C-255.29402102 210.52035213 -261.27354561 288.39495873 -243.38330078 357.37792969 C-242.12733049 361.99289029 -240.61207077 366.50027305 -239 371 C-238.69755371 371.86447754 -238.39510742 372.72895508 -238.08349609 373.61962891 C-225.67084812 408.89989347 -207.94574891 441.02447649 -183 469 C-182.54915039 469.50724609 -182.09830078 470.01449219 -181.63378906 470.53710938 C-171.81186518 481.53710645 -161.60806347 491.86502595 -150 501 C-148.90671354 501.88307744 -147.8142997 502.76723606 -146.72265625 503.65234375 C-114.01517607 530.00727549 -75.71942683 548.04711655 -35 558 C-33.76378906 558.30550781 -32.52757812 558.61101563 -31.25390625 558.92578125 C-20.95589833 561.29104809 -10.46458006 562.60242582 0 564 C0 564.66 0 565.32 0 566 C-8.17513316 566.15553491 -16.13183312 565.77405107 -24.25 564.8125 C-25.36898682 564.68085449 -26.48797363 564.54920898 -27.64086914 564.41357422 C-39.24905972 562.965713 -50.62019572 560.6847362 -62 558 C-63.269646 557.70222656 -63.269646 557.70222656 -64.56494141 557.3984375 C-116.29394878 545.05015645 -169.90940725 515.34532039 -204.3828125 473.92578125 C-206.24364652 471.70986054 -208.21467717 469.61674763 -210.1875 467.5 C-244.8290079 428.97676116 -266.47517698 378.74252214 -275 328 C-275.23203125 326.72253906 -275.4640625 325.44507813 -275.703125 324.12890625 C-278.17031889 309.73106763 -278.26844171 294.95089001 -278.3125 280.375 C-278.31642761 279.11340561 -278.31642761 279.11340561 -278.32043457 277.82632446 C-278.32578928 261.60365288 -276.86319853 245.99045248 -274 230 C-273.85046875 229.14293457 -273.7009375 228.28586914 -273.546875 227.40283203 C-268.57752241 199.8815911 -258.05620407 173.61579771 -245 149 C-244.65501465 148.34725098 -244.3100293 147.69450195 -243.95458984 147.02197266 C-235.77788867 131.68925592 -225.90338761 117.51359252 -215 104 C-214.57203125 103.46761719 -214.1440625 102.93523437 -213.703125 102.38671875 C-201.71447068 87.61246534 -188.17714629 73.50895384 -173 62 C-172.00226563 61.20851562 -171.00453125 60.41703125 -169.9765625 59.6015625 C-136.14856438 32.84480748 -96.72283138 14.71313997 -54.63476562 5.57617188 C-52.99468456 5.21751812 -51.35728115 4.84607849 -49.72460938 4.45507812 C-43.37251024 2.94595249 -36.98196718 2.12013579 -30.5 1.375 C-29.36320801 1.24311279 -28.22641602 1.11122559 -27.05517578 0.9753418 C-17.9976375 -0.01518639 -9.09920829 -0.34217079 0 0 Z " fill="#FAFBFB" transform="translate(407,100)"/>
<path d="M0 0 C0.7528125 0.69738281 1.505625 1.39476562 2.28125 2.11328125 C2.28125 6.55558836 1.78877486 7.26405197 -0.78125 10.66015625 C-1.41289063 11.50449219 -2.04453125 12.34882813 -2.6953125 13.21875 C-3.36304688 14.09144531 -4.03078125 14.96414063 -4.71875 15.86328125 C-5.38648438 16.75144531 -6.05421875 17.63960938 -6.7421875 18.5546875 C-8.39265119 20.7474464 -10.05166446 22.93314887 -11.71875 25.11328125 C-15.77021934 23.55735643 -19.1866349 21.65050017 -22.84375 19.30078125 C-38.58593177 9.44044089 -54.41661656 4.88210748 -72.93359375 7.58203125 C-82.03406688 9.72632225 -89.32320671 14.49604366 -94.71875 22.11328125 C-97.8159801 27.19243718 -98.20932968 31.20742206 -98.15625 36.98828125 C-98.17623047 37.75269531 -98.19621094 38.51710938 -98.21679688 39.3046875 C-98.21080345 46.36494072 -95.85656123 52.51918118 -90.84375 57.61328125 C-79.75410797 67.99507379 -63.57722251 73.79469376 -49.6862793 79.3503418 C-35.40880547 85.06599116 -21.48815138 91.00986819 -9.71875 101.11328125 C-8.8525 101.71140625 -7.98625 102.30953125 -7.09375 102.92578125 C4.33843128 113.4554219 8.04351608 126.60734798 8.66821289 141.61791992 C9.03161351 158.21321467 3.09917691 172.65329717 -8.2734375 184.7578125 C-23.37597324 199.30546275 -44.12435345 203.77478639 -64.47460938 203.65820312 C-79.34462122 203.21558719 -94.39477877 199.81187118 -107.71875 193.11328125 C-108.9046875 192.53835938 -110.090625 191.9634375 -111.3125 191.37109375 C-120.25919143 186.9034655 -128.00862366 181.45820816 -135.71875 175.11328125 C-133.48904055 170.27286609 -130.14070013 166.45984026 -126.78125 162.36328125 C-126.14767578 161.57050781 -125.51410156 160.77773438 -124.86132812 159.9609375 C-124.24837891 159.21199219 -123.63542969 158.46304688 -123.00390625 157.69140625 C-122.44582275 157.0046582 -121.88773926 156.31791016 -121.31274414 155.61035156 C-119.71875 154.11328125 -119.71875 154.11328125 -116.71875 154.11328125 C-114.85665069 155.39839204 -113.05186185 156.76728656 -111.28125 158.17578125 C-94.15127209 171.34091867 -74.59460212 179.06843228 -52.71875 177.11328125 C-40.91383954 174.79017588 -31.74504019 169.98354604 -24.71875 160.11328125 C-20.27637514 153.13465691 -20.97490201 144.05038449 -21.71875 136.11328125 C-22.61165882 133.02244304 -23.78763035 130.67022671 -25.71875 128.11328125 C-26.30269531 127.30761719 -26.88664063 126.50195312 -27.48828125 125.671875 C-37.78907398 113.85572923 -55.75145091 108.59242538 -69.9140625 103.0859375 C-84.97543389 97.22247158 -99.5997755 91.08462559 -111.71875 80.11328125 C-112.3375 79.62085938 -112.95625 79.1284375 -113.59375 78.62109375 C-120.76662634 72.44089226 -126.23936345 61.42932402 -127.71875 52.11328125 C-129.45281731 25.93484447 -129.45281731 25.93484447 -123.71875 15.11328125 C-123.23277344 14.1903125 -122.74679687 13.26734375 -122.24609375 12.31640625 C-113.21883817 -3.13449928 -99.63168009 -12.36684195 -82.65625 -17.1953125 C-53.76545158 -23.99540734 -24.07215726 -16.44735987 0 0 Z " fill="#FBFCFC" transform="translate(709.71875,286.88671875)"/>
<path d="M0 0 C0 64.68 0 129.36 0 196 C15.84 196 31.68 196 48 196 C48 205.24 48 214.48 48 224 C3.12 224 -41.76 224 -88 224 C-88 214.76 -88 205.52 -88 196 C-69.85 196 -51.7 196 -33 196 C-33 143.2 -33 90.4 -33 36 C-42.57 39.96 -52.14 43.92 -62 48 C-79.5862069 55.13793103 -79.5862069 55.13793103 -83 54 C-83.81542969 51.76269531 -83.81542969 51.76269531 -84.421875 48.828125 C-84.64230469 47.77109375 -84.86273437 46.7140625 -85.08984375 45.625 C-85.41662109 43.954375 -85.41662109 43.954375 -85.75 42.25 C-85.98332031 41.15171875 -86.21664062 40.0534375 -86.45703125 38.921875 C-88.43446963 29.16493354 -88.43446963 29.16493354 -87 25 C-84.64952087 23.44963074 -84.64952087 23.44963074 -81.48413086 22.13745117 C-80.30036362 21.63731003 -79.11659637 21.13716888 -77.8969574 20.62187195 C-76.5869209 20.0939102 -75.27619517 19.56765596 -73.96484375 19.04296875 C-72.61107741 18.49013523 -71.25752976 17.93676592 -69.90419006 17.38288879 C-67.05050106 16.22141395 -64.19066136 15.07682525 -61.32641602 13.94165039 C-57.72009582 12.50928491 -54.13912718 11.02296377 -50.56188107 9.51972485 C-47.76128555 8.3537244 -44.94587248 7.22726312 -42.12558174 6.10985756 C-40.8029758 5.57913013 -39.48543676 5.0355308 -38.17429924 4.47707176 C-24.80622813 -1.18008597 -15.71198081 0 0 0 Z " fill="#263C71" transform="translate(882,266)"/>
<path d="M0 0 C-2.74769285 2.74769285 -4.71840564 2.47550769 -8.5625 2.875 C-65.46698464 9.71313073 -119.58345725 43.44057254 -154.85595703 88.00195312 C-176.96514679 116.55281653 -192.34562459 148.98397747 -200.125 184.25 C-200.28387695 184.95141113 -200.44275391 185.65282227 -200.60644531 186.37548828 C-203.80606675 201.56863806 -204.40840707 216.9647234 -204.375 232.4375 C-204.37478851 233.34976349 -204.37457703 234.26202698 -204.37435913 235.20193481 C-204.22547509 299.90298948 -176.84371938 357.37695087 -131.50073242 402.75048828 C-125.40630165 408.72395593 -118.89558606 413.98419471 -112 419 C-111.05253906 419.69005127 -111.05253906 419.69005127 -110.0859375 420.39404297 C-77.13056652 444.16687905 -40.14861158 458.41371129 0 464 C0 464.66 0 465.32 0 466 C-49.21163777 468.92346363 -102.57246239 445.84457108 -140 415 C-140.55461914 414.54689453 -141.10923828 414.09378906 -141.68066406 413.62695312 C-154.66768541 402.95930404 -166.78174052 391.38191988 -177 378 C-177.41282227 377.46890625 -177.82564453 376.9378125 -178.25097656 376.390625 C-201.79819603 345.99362222 -219.51325245 308.31218684 -225 270 C-225.11134277 269.26749023 -225.22268555 268.53498047 -225.33740234 267.78027344 C-234.36748893 205.27660176 -218.03691557 142.2301709 -180.31445312 91.74414062 C-170.71200429 79.2643825 -160.20536603 67.00097483 -148 57 C-147.15695312 56.26910156 -146.31390625 55.53820312 -145.4453125 54.78515625 C-131.74833243 43.03693351 -117.03565174 33.2578018 -101 25 C-100.19079102 24.57976562 -99.38158203 24.15953125 -98.54785156 23.7265625 C-67.80004325 7.92776648 -34.56685713 -0.66975611 0 0 Z " fill="#F9FAFB" transform="translate(430,150)"/>
<path d="M0 0 C0.82693359 0.00451172 1.65386719 0.00902344 2.50585938 0.01367188 C4.52477146 0.02534189 6.54364574 0.04327282 8.5625 0.0625 C8.5625 0.3925 8.5625 0.7225 8.5625 1.0625 C7.91514893 1.17730713 7.26779785 1.29211426 6.60083008 1.41040039 C-23.10593978 6.77234007 -50.8998748 15.98939995 -75.4375 34.0625 C-75.97987305 34.45228027 -76.52224609 34.84206055 -77.08105469 35.24365234 C-90.35830152 44.80979334 -102.64188758 55.9167153 -112.4375 69.0625 C-112.82711914 69.5771582 -113.21673828 70.09181641 -113.61816406 70.62207031 C-143.25096064 109.92130568 -156.51901631 157.91523588 -150.75390625 206.9296875 C-143.8733656 254.65017733 -118.37956637 299.41346193 -79.78662109 328.47949219 C-73.55085317 333.07807545 -67.18585604 337.24237798 -60.4375 341.0625 C-59.82535645 341.41763672 -59.21321289 341.77277344 -58.58251953 342.13867188 C-38.40945665 353.77561992 -15.62904934 361.53008944 7.5625 364.0625 C7.5625 364.7225 7.5625 365.3825 7.5625 366.0625 C-33.21126371 365.52792145 -73.49597237 350.8533349 -104.4375 324.0625 C-105.21867187 323.39089844 -105.99984375 322.71929688 -106.8046875 322.02734375 C-109.39289306 319.74922672 -111.92216075 317.42085872 -114.4375 315.0625 C-114.93652832 314.5974707 -115.43555664 314.13244141 -115.94970703 313.65332031 C-149.66308144 281.98538315 -169.27794532 236.21083617 -170.80859375 190.14453125 C-170.86050679 187.38772585 -170.87622719 184.6322628 -170.875 181.875 C-170.87573517 181.14560211 -170.87647034 180.41620422 -170.87722778 179.66470337 C-170.74742077 130.04681221 -149.44115366 85.53190919 -114.94970703 50.55371094 C-85.8990277 21.68171821 -41.49267605 -0.43465333 0 0 Z " fill="#F9FAFB" transform="translate(445.4375,199.9375)"/>
<path d="M0 0 C64.36788256 0 64.36788256 0 78.375 10.25 C86.34298956 18.59741764 90.06531682 28.66733276 90.3125 40.125 C89.95887611 51.54410485 86.56318034 60.33471688 79 69 C76.66015625 70.87890625 76.66015625 70.87890625 74.0625 72.5625 C73.22847656 73.12066406 72.39445313 73.67882812 71.53515625 74.25390625 C60.84821279 79.5324297 50.98445816 80.54671276 39.1875 80.25 C32.1646875 80.12625 32.1646875 80.12625 25 80 C25 91.22 25 102.44 25 114 C16.75 114 8.5 114 0 114 C0 76.38 0 38.76 0 0 Z M25 24 C25 34.89 25 45.78 25 57 C29.16625 57.061875 33.3325 57.12375 37.625 57.1875 C38.92775879 57.21481201 40.23051758 57.24212402 41.57275391 57.27026367 C48.56504356 57.32060296 53.27355684 57.01552842 58.86328125 52.4921875 C62.32675962 48.62728171 63.92695625 45.50430136 64.16796875 40.2734375 C63.78461236 35.08475327 62.30892052 31.30892052 58.625 27.625 C53.9398864 24.72469158 50.34316132 23.75031368 44.82421875 23.8046875 C43.78096436 23.80968262 42.73770996 23.81467773 41.6628418 23.81982422 C39.69504761 23.84713623 39.69504761 23.84713623 37.6875 23.875 C33.500625 23.91625 29.31375 23.9575 25 24 Z " fill="#F16841" transform="translate(797,651)"/>
<path d="M0 0 C10.29587279 9.33251628 14.43446515 22.12884626 15.21484375 35.75 C15.24547749 38.85421874 15.25658546 41.90617142 15 45 C14 46 14 46 11.63987732 46.12025452 C10.59396927 46.11803391 9.54806122 46.11581329 8.47045898 46.11352539 C7.28931015 46.11344986 6.10816132 46.11337433 4.89122009 46.11329651 C3.6058284 46.10813522 2.32043671 46.10297394 0.99609375 46.09765625 C-0.9661338 46.09553383 -0.9661338 46.09553383 -2.96800232 46.09336853 C-6.45162859 46.0895441 -9.93521339 46.07971446 -13.41882324 46.06866455 C-16.97126708 46.05844882 -20.52371759 46.05387056 -24.07617188 46.04882812 C-31.05079832 46.03809212 -38.02539717 46.0210166 -45 46 C-44.39211602 47.28703973 -43.77590931 48.57015057 -43.15625 49.8515625 C-42.81400391 50.56650879 -42.47175781 51.28145508 -42.11914062 52.01806641 C-39.87394695 55.99417511 -36.13717616 58.30361462 -32 60 C-22.93730274 61.08432776 -15.60308798 60.18392362 -8 55 C-7.01 54.01 -7.01 54.01 -6 53 C-3.06390426 52.91611155 -1.45702037 53.59933865 0.7421875 55.52734375 C1.9597947 56.76324119 3.16298305 58.0135049 4.3515625 59.27734375 C6.090721 61.09480559 7.92041053 62.58587916 10 64 C9.27704849 68.84485417 6.32533734 70.9616907 2.74609375 74.03125 C-8.22642447 81.89774955 -20.92698889 83.08253499 -34 82 C-42.37261667 80.44787297 -49.39467081 77.35953037 -56 72 C-56.62519531 71.49855469 -57.25039063 70.99710938 -57.89453125 70.48046875 C-66.45896538 62.81166172 -70.43420973 51.77077571 -71.25 40.56640625 C-71.72637259 26.02215548 -67.67214852 13.16750371 -57.875 2.25 C-41.9571609 -12.67959188 -17.04040483 -12.84584364 0 0 Z M-42.703125 19.890625 C-44.52211185 22.63680996 -44.52211185 22.63680996 -46 29 C-34.12 29 -22.24 29 -10 29 C-12.91596456 19.39416699 -12.91596456 19.39416699 -19.6875 13.1875 C-29.1856614 9.78249874 -36.19350778 12.54105717 -42.703125 19.890625 Z " fill="#F06841" transform="translate(966,685)"/>
<path d="M0 0 C8.25 0 16.5 0 25 0 C25.03738281 3.733125 25.07476563 7.46625 25.11328125 11.3125 C25.15954255 14.94325493 25.21075964 18.57390865 25.26245117 22.20458984 C25.29562736 24.72047738 25.32368184 27.23643803 25.34643555 29.75244141 C25.38011518 33.37694344 25.43243991 37.00077979 25.48828125 40.625 C25.49467117 41.74302002 25.5010611 42.86104004 25.50764465 44.01293945 C25.62597228 50.35248274 26.23422816 55.25824929 29 61 C32.38464432 63.83578308 35.6082442 64.83108632 40 65 C43.34599044 64.50451361 46.19718807 63.92120018 49 62 C53.33423659 55.16648489 53.60078514 49.37566598 53.609375 41.40625 C53.62591125 40.21898315 53.64244751 39.03171631 53.65948486 37.80847168 C53.70783463 34.0389278 53.72930804 30.26978702 53.75 26.5 C53.77817039 23.9348757 53.8080993 21.36977006 53.83984375 18.8046875 C53.91688116 12.53627518 53.95752628 6.26912176 54 0 C62.58 0 71.16 0 80 0 C80 28.71 80 57.42 80 87 C71.42 87 62.84 87 54 87 C53.505 82.545 53.505 82.545 53 78 C52.49210937 78.47050781 51.98421875 78.94101562 51.4609375 79.42578125 C43.66910778 86.47344746 37.19672671 89.37886552 26.68359375 89.20703125 C17.93749197 88.5322956 11.93087378 85.41138438 6 79 C1.17984267 72.91138021 -0.25655065 66.83144498 -0.22705078 59.14672852 C-0.22734283 58.50197067 -0.22763489 57.85721283 -0.22793579 57.19291687 C-0.22655626 55.08810374 -0.21106128 52.98365658 -0.1953125 50.87890625 C-0.19157745 49.40917657 -0.1887328 47.93944438 -0.18673706 46.4697113 C-0.1791393 42.62115477 -0.15952447 38.77275171 -0.1373291 34.92425537 C-0.11678708 30.98923823 -0.10771755 27.05419605 -0.09765625 23.11914062 C-0.07627448 15.4126827 -0.04112433 7.7063825 0 0 Z " fill="#F16841" transform="translate(1062,678)"/>
<path d="M0 0 C0 8.91 0 17.82 0 27 C-3.96 27.66 -7.92 28.32 -12 29 C-18.02614015 31.12030857 -22.10086609 35.13167796 -24.90673828 40.84692383 C-28.08970955 50.0972334 -27.56955597 59.960378 -27.6875 69.625 C-27.7207226 71.5065335 -27.75521671 73.388045 -27.79101562 75.26953125 C-27.87771347 79.8463708 -27.93825679 84.42248618 -28 89 C-36.58 89 -45.16 89 -54 89 C-54 60.29 -54 31.58 -54 2 C-45.42 2 -36.84 2 -28 2 C-27.67 5.96 -27.34 9.92 -27 14 C-25.700625 12.14375 -25.700625 12.14375 -24.375 10.25 C-17.77894528 1.50675182 -10.7083321 0 0 0 Z " fill="#F06841" transform="translate(1050,676)"/>
<path d="M0 0 C8.94482387 7.1152008 14.65506666 15.04502432 16.53125 26.5546875 C17.49247172 38.12367747 14.67223115 48.32643338 7.375 57.375 C0.41528553 65.13775845 -7.68200692 69.56783882 -18.16015625 70.42578125 C-29.22584892 70.68631181 -38.64071141 68.51694112 -47.21484375 61.234375 C-55.53047734 52.87085868 -59.33142544 44.44601048 -59.625 32.75 C-59.32372614 20.67494379 -55.88298057 11.73287516 -47.1796875 3.14453125 C-33.18186373 -8.62066471 -15.60392559 -8.70218927 0 0 Z M-43.75 12.4375 C-49.53179557 20.25489815 -51.49493321 28.57102614 -50.25 38.1875 C-48.30884934 45.8321439 -44.6223447 52.25993007 -38.00390625 56.69140625 C-30.05761799 61.27128668 -21.84223211 62.89469272 -12.74609375 60.5390625 C-4.13857466 57.03617647 2.04242803 51.27279562 5.84375 42.796875 C8.62627068 34.78513443 8.34711426 26.80061792 4.78125 19.09375 C0.85581934 12.19772316 -5.21191492 6.02033746 -12.93359375 3.6328125 C-24.52083311 1.40524878 -35.40614357 3.63358131 -43.75 12.4375 Z " fill="#253B70" transform="translate(735.25,34.8125)"/>
<path d="M0 0 C3.856875 -0.061875 7.71375 -0.12375 11.6875 -0.1875 C13.4986731 -0.22846802 13.4986731 -0.22846802 15.34643555 -0.27026367 C16.308479 -0.27775635 17.27052246 -0.28524902 18.26171875 -0.29296875 C19.24100342 -0.3086792 20.22028809 -0.32438965 21.22924805 -0.34057617 C25.32236698 0.16254313 27.95157141 1.91248526 30.78125 4.84765625 C33.09603731 8.93562999 32.75457363 13.46582097 32 18 C29.5 21 29.5 21 27 23 C27 26.83328915 28.25379731 28.06766856 30.5 31.125 C34 35.91666667 34 35.91666667 34 37 C29.81692696 37.69020705 26.15477671 37.94704469 22 37 C19.34162819 34.36718946 17.59825007 31.73120571 15.71875 28.50390625 C14.10216425 25.55621313 14.10216425 25.55621313 10 25 C10 28.96 10 32.92 10 37 C6.7 37 3.4 37 0 37 C0 24.79 0 12.58 0 0 Z M10 8 C10 10.97 10 13.94 10 17 C11.62463842 17.05395478 13.24978541 17.09277195 14.875 17.125 C15.77992188 17.14820313 16.68484375 17.17140625 17.6171875 17.1953125 C20.18806994 17.24324836 20.18806994 17.24324836 22 15 C22.41666667 12.5 22.41666667 12.5 22 10 C17.7975546 7.19836974 14.99895065 7.85510288 10 8 Z " fill="#263C71" transform="translate(699,48)"/>
<path d="M0 0 C0 0.66 0 1.32 0 2 C-7.73708326 2.12152487 -15.307359 1.84800767 -23 1 C-23 0.67 -23 0.34 -23 0 C-15.50232747 -1.13172416 -7.38037447 -2.17272706 0 0 Z " fill="#C8CDDB" transform="translate(407,664)"/>
<path d="M0 0 C6.27 0 12.54 0 19 0 C16.41073669 2.58926331 14.97294721 2.37398043 11.375 2.625 C10.37210937 2.69976562 9.36921875 2.77453125 8.3359375 2.8515625 C7.17964844 2.92503906 7.17964844 2.92503906 6 3 C6 2.34 6 1.68 6 1 C4.02 1 2.04 1 0 1 C0 0.67 0 0.34 0 0 Z " fill="#DADEE7" transform="translate(411,150)"/>
</svg>
