<?xml version="1.0" encoding="UTF-8"?>
<svg version="1.1" xmlns="http://www.w3.org/2000/svg" width="658" height="469">
<path d="M0 0 C1.2804847 -0.00855011 1.2804847 -0.00855011 2.58683777 -0.01727295 C4.38950382 -0.02667183 6.19218665 -0.03323645 7.99487305 -0.03710938 C10.68506022 -0.0467129 13.37444796 -0.07774242 16.06445312 -0.109375 C31.6266783 -0.20561905 46.73082239 1.48121637 61.66796875 6.015625 C62.54155029 6.27424316 63.41513184 6.53286133 64.31518555 6.79931641 C111.05640753 20.95760601 149.25023639 52.26591055 173.91796875 94.203125 C174.27632813 94.80850098 174.6346875 95.41387695 175.00390625 96.03759766 C184.60706585 112.47759316 190.87216103 130.64807853 194.91796875 149.203125 C195.08167969 149.92064941 195.24539063 150.63817383 195.4140625 151.37744141 C200.52651346 174.71620255 200.36264013 202.9519812 194.91796875 226.203125 C194.61995361 227.50080811 194.61995361 227.50080811 194.31591797 228.82470703 C184.52926951 270.22186347 161.96959586 309.09050084 127.91796875 335.203125 C126.95890625 335.98945313 125.99984375 336.77578125 125.01171875 337.5859375 C87.89500582 367.4855118 38.53663565 380.09530061 -8.51953125 375.515625 C-43.68894464 371.63302253 -77.78530424 357.73349366 -105.08203125 335.203125 C-105.92628662 334.51911621 -105.92628662 334.51911621 -106.78759766 333.82128906 C-145.31009367 302.52645957 -168.89309629 257.44330359 -174.87062073 208.32415771 C-175.20751427 204.94418295 -175.28314052 201.56551594 -175.3203125 198.171875 C-175.33500328 197.05431824 -175.33500328 197.05431824 -175.34999084 195.91418457 C-175.52999035 178.65125768 -175.12372581 162.08532962 -171.08203125 145.203125 C-170.87304199 144.31318848 -170.66405273 143.42325195 -170.44873047 142.50634766 C-163.09604576 112.16481953 -148.19789589 85.82375009 -128.08203125 62.203125 C-127.40269531 61.40003906 -126.72335938 60.59695312 -126.0234375 59.76953125 C-121.70707897 54.78005638 -117.13984246 50.42684103 -112.08203125 46.203125 C-111.24414062 45.46578125 -110.40625 44.7284375 -109.54296875 43.96875 C-96.3723181 32.57595577 -81.89852254 23.44541312 -66.08203125 16.203125 C-64.95796875 15.67203125 -63.83390625 15.1409375 -62.67578125 14.59375 C-43.21740674 5.77383258 -21.40203759 0.11427635 0 0 Z M-3.08203125 25.203125 C-3.08203125 25.533125 -3.08203125 25.863125 -3.08203125 26.203125 C-1.43203125 26.203125 0.21796875 26.203125 1.91796875 26.203125 C1.91796875 25.873125 1.91796875 25.543125 1.91796875 25.203125 C0.26796875 25.203125 -1.38203125 25.203125 -3.08203125 25.203125 Z M-107.08203125 76.203125 C-110.29154149 79.7296239 -113.21947423 83.39162509 -116.08203125 87.203125 C-116.86835937 88.21246094 -117.6546875 89.22179687 -118.46484375 90.26171875 C-143.86309198 123.61351031 -154.26623884 167.08935963 -149.25976562 208.47241211 C-143.23712944 251.44005649 -121.45318904 291.02371615 -86.7890625 317.46875 C-63.34285101 334.97820147 -34.8024272 348.60654771 -5.08203125 349.203125 C-5.08203125 348.873125 -5.08203125 348.543125 -5.08203125 348.203125 C-6.24734375 347.95820313 -7.41265625 347.71328125 -8.61328125 347.4609375 C-38.31938944 340.83704989 -64.00230374 327.13497677 -86.08203125 306.203125 C-87.02820313 305.32140625 -87.974375 304.4396875 -88.94921875 303.53125 C-111.66065472 281.93403002 -125.87169223 253.45380118 -133.08203125 223.203125 C-133.26137207 222.4611084 -133.44071289 221.7190918 -133.62548828 220.95458984 C-138.54249884 199.49454872 -138.24684508 173.57236819 -133.08203125 152.203125 C-132.88335449 151.36958496 -132.68467773 150.53604492 -132.47998047 149.67724609 C-125.29170193 120.45568231 -110.94020206 94.81593296 -90.08203125 73.203125 C-89.30472656 72.36265625 -88.52742188 71.5221875 -87.7265625 70.65625 C-76.34837408 58.68723438 -62.70301023 49.70502711 -48.08203125 42.203125 C-47.16454102 41.72601074 -47.16454102 41.72601074 -46.22851562 41.23925781 C-33.0318603 34.45665892 -18.73525996 29.60529364 -4.08203125 27.203125 C-4.08203125 26.873125 -4.08203125 26.543125 -4.08203125 26.203125 C-42.21101555 24.94557275 -81.42828232 50.09590071 -107.08203125 76.203125 Z M7.91796875 50.203125 C7.91796875 50.533125 7.91796875 50.863125 7.91796875 51.203125 C9.56796875 51.203125 11.21796875 51.203125 12.91796875 51.203125 C12.91796875 50.873125 12.91796875 50.543125 12.91796875 50.203125 C11.26796875 50.203125 9.61796875 50.203125 7.91796875 50.203125 Z M-70.08203125 88.203125 C-70.89285156 88.94949219 -71.70367187 89.69585937 -72.5390625 90.46484375 C-94.03657616 110.94672684 -106.6286322 139.09570879 -111.08203125 168.203125 C-111.27732422 169.42708984 -111.27732422 169.42708984 -111.4765625 170.67578125 C-115.86369099 204.77839342 -106.8114288 242.58685574 -85.72265625 269.921875 C-84.84707909 271.0193359 -83.96667433 272.11295878 -83.08203125 273.203125 C-82.59412109 273.80769531 -82.10621094 274.41226563 -81.60351562 275.03515625 C-75.9319008 281.99675717 -70.19905141 288.67354428 -63.08203125 294.203125 C-62.20289063 294.90695312 -61.32375 295.61078125 -60.41796875 296.3359375 C-42.67067709 310.14979249 -16.38895762 325.39835199 6.91796875 324.203125 C4.17096437 322.75170877 1.50455416 321.68620459 -1.46875 320.79296875 C-36.41782578 309.95838979 -65.62167916 287.69004906 -83.28125 255.24609375 C-99.20913099 224.89091958 -105.20151876 189.87981826 -97.08203125 156.203125 C-96.91574219 155.50606445 -96.74945313 154.80900391 -96.578125 154.09082031 C-91.29086319 132.73615734 -81.34916317 113.90813577 -67.08203125 97.203125 C-66.07076172 95.99076172 -66.07076172 95.99076172 -65.0390625 94.75390625 C-46.91551069 73.72530424 -19.64980689 56.93369005 7.91796875 52.203125 C7.91796875 51.873125 7.91796875 51.543125 7.91796875 51.203125 C-20.68523011 50.04474 -50.34992159 69.55135629 -70.08203125 88.203125 Z M22.91796875 74.203125 C22.91796875 74.533125 22.91796875 74.863125 22.91796875 75.203125 C24.56796875 75.203125 26.21796875 75.203125 27.91796875 75.203125 C27.91796875 74.873125 27.91796875 74.543125 27.91796875 74.203125 C26.26796875 74.203125 24.61796875 74.203125 22.91796875 74.203125 Z M-38.08203125 102.203125 C-39.05914062 103.08613281 -40.03625 103.96914062 -41.04296875 104.87890625 C-62.78616519 125.21107078 -74.8918681 153.69100205 -76.30078125 183.25 C-77.24524785 213.69746487 -66.56876426 243.3249161 -45.859375 265.734375 C-29.39519941 283.04767263 -4.74476185 299.31893191 19.98046875 300.328125 C20.61984375 300.286875 21.25921875 300.245625 21.91796875 300.203125 C18.48559472 298.31320054 14.97440131 297.26987601 11.23046875 296.140625 C-16.060365 287.3572519 -38.83044588 267.61315058 -52.31689453 242.43530273 C-61.1517771 225.18412149 -65.47875179 207.8372748 -65.39453125 188.453125 C-65.39270844 187.78948944 -65.39088562 187.12585388 -65.38900757 186.44210815 C-65.34368003 176.64796493 -64.91819367 167.62650336 -62.08203125 158.203125 C-61.74171875 156.9965625 -61.40140625 155.79 -61.05078125 154.546875 C-52.05139554 125.11645147 -32.07283812 100.94521697 -5.08203125 86.203125 C3.90678957 81.59115878 12.98003798 78.17941805 22.91796875 76.203125 C22.91796875 75.873125 22.91796875 75.543125 22.91796875 75.203125 C1.56334431 74.35804093 -22.84862375 88.39647756 -38.08203125 102.203125 Z M32.91796875 99.203125 C36.91796875 100.203125 36.91796875 100.203125 36.91796875 100.203125 Z M-13.08203125 122.203125 C-13.71367187 122.75355469 -14.3453125 123.30398437 -14.99609375 123.87109375 C-29.73668596 137.50109339 -40.22012066 160.12779089 -41.08203125 180.203125 C-41.13359375 181.26402344 -41.18515625 182.32492188 -41.23828125 183.41796875 C-41.873655 208.64760149 -33.7809489 231.56964301 -16.30859375 249.97265625 C-15.57382813 250.70871094 -14.8390625 251.44476563 -14.08203125 252.203125 C-13.40914062 252.88761719 -12.73625 253.57210937 -12.04296875 254.27734375 C-0.44755764 265.32989854 15.75454461 274.23331955 31.91796875 275.203125 C29.09329776 273.32001101 26.62744899 272.24014719 23.48046875 271.015625 C0.51097658 261.49101587 -15.20689103 245.3789461 -25.58984375 222.9453125 C-34.84299552 200.39421806 -34.88909197 175.12903469 -25.54516602 152.62011719 C-15.44665177 129.4735076 0.90965337 114.06652577 23.91796875 104.203125 C26.90941991 103.05226879 29.83417833 102.08420798 32.91796875 101.203125 C32.91796875 100.873125 32.91796875 100.543125 32.91796875 100.203125 C16.68921805 99.2232759 -1.71273436 111.87255125 -13.08203125 122.203125 Z M15.91796875 145.203125 C6.15406408 157.04213245 1.50170676 170.72679397 1.60546875 185.953125 C1.6111084 186.82710937 1.61674805 187.70109375 1.62255859 188.6015625 C1.88889708 202.90473016 5.84432079 216.76209074 15.875 227.390625 C25.99302476 236.36722823 37.80254469 240.66152697 51.28515625 240.41015625 C62.23368302 239.54921868 75.85422315 236.2668706 83.91796875 228.203125 C84.20962957 226.14232356 84.20962957 226.14232356 84.14501953 223.75341797 C84.14486847 222.83261444 84.14471741 221.91181091 84.14456177 220.96310425 C84.1342392 219.96723297 84.12391663 218.97136169 84.11328125 217.9453125 C84.10903641 216.41803024 84.10903641 216.41803024 84.10470581 214.8598938 C84.09348645 211.599186 84.06837871 208.33875016 84.04296875 205.078125 C84.03294122 202.87109771 84.02381498 200.66406612 84.015625 198.45703125 C83.99524066 193.03887273 83.95609511 187.62130427 83.91796875 182.203125 C72.36796875 182.203125 60.81796875 182.203125 48.91796875 182.203125 C48.91796875 185.833125 48.91796875 189.463125 48.91796875 193.203125 C56.50796875 193.203125 64.09796875 193.203125 71.91796875 193.203125 C71.91796875 202.773125 71.91796875 212.343125 71.91796875 222.203125 C70.26796875 222.863125 68.61796875 223.523125 66.91796875 224.203125 C66.29277344 224.48414063 65.66757812 224.76515625 65.0234375 225.0546875 C56.70720623 228.40827974 45.33250506 229.02981323 36.91796875 225.640625 C27.60815411 220.57708078 21.38645225 213.25896099 18.16796875 203.203125 C16.99070151 198.84657109 16.27513732 194.70344894 15.91796875 190.203125 C15.86511719 189.54183594 15.81226563 188.88054687 15.7578125 188.19921875 C15.23476855 175.8508334 19.25154109 164.80767378 25.60546875 154.453125 C32.11384488 148.12065093 39.85302864 144.40289246 48.8828125 144.10546875 C57.47914758 144.36100784 63.50757712 147.06271571 70.91796875 151.203125 C72.40296875 151.698125 72.40296875 151.698125 73.91796875 152.203125 C74.95122861 150.77453093 75.96924509 149.33490117 76.98046875 147.890625 C77.54894531 147.09011719 78.11742187 146.28960937 78.703125 145.46484375 C79.10402344 144.71847656 79.50492187 143.97210938 79.91796875 143.203125 C79.21236285 140.02009797 79.21236285 140.02009797 76.44140625 138.66796875 C74.88292969 137.91193359 74.88292969 137.91193359 73.29296875 137.140625 C72.26945312 136.63402344 71.2459375 136.12742188 70.19140625 135.60546875 C63.54835962 132.75958123 57.74385347 131.84151747 50.60546875 131.890625 C49.34307373 131.89799683 49.34307373 131.89799683 48.05517578 131.90551758 C36.09919977 132.13103657 24.31419611 136.29192903 15.91796875 145.203125 Z M114.91796875 141.203125 C109.58096851 147.69291729 107.54985321 154.80234225 107.98046875 163.140625 C108.93983363 170.15052972 111.63452352 176.7272829 117.16796875 181.328125 C125.44612865 186.8678822 135.17562537 190.8658577 144.48046875 194.328125 C150.25740565 196.56594868 154.92506379 199.83655036 158.91796875 204.578125 C160.86766571 209.69607952 160.58397219 213.70461727 158.41796875 218.578125 C157.92296875 219.444375 157.42796875 220.310625 156.91796875 221.203125 C156.91796875 221.863125 156.91796875 222.523125 156.91796875 223.203125 C148.11206141 227.76915103 139.27029836 228.93828655 129.5859375 226.29296875 C123.17634538 223.73406869 117.46957203 220.28271226 111.91796875 216.203125 C110.74547522 217.65677769 109.58013059 219.11619919 108.41796875 220.578125 C107.76828125 221.39023437 107.11859375 222.20234375 106.44921875 223.0390625 C104.7254326 225.03339343 104.7254326 225.03339343 104.91796875 227.203125 C117.49276407 236.90914572 132.20275718 241.57409156 148.0703125 239.734375 C156.47002452 238.16735054 163.25098479 234.66846005 168.91796875 228.203125 C173.78726978 220.77920516 175.10320171 212.60773244 173.4921875 203.90234375 C171.12643021 195.49882551 165.98761146 190.22799504 158.66796875 185.703125 C152.5976356 182.33838226 146.24349898 179.70647788 139.76855469 177.21875 C132.92446088 174.50515697 126.77054179 171.23460815 122.85546875 164.828125 C121.36994914 159.08411583 121.9726582 153.47368072 124.91796875 148.203125 C126.66796875 147.015625 126.66796875 147.015625 128.91796875 146.203125 C129.78421875 145.831875 130.65046875 145.460625 131.54296875 145.078125 C141.03517973 142.61718141 150.44581736 144.50475278 158.94140625 149.359375 C160.28712021 150.27839917 161.60606079 151.23645598 162.91796875 152.203125 C163.57796875 152.203125 164.23796875 152.203125 164.91796875 152.203125 C166.50252741 150.41588559 166.50252741 150.41588559 168.04296875 148.203125 C168.85121094 147.089375 168.85121094 147.089375 169.67578125 145.953125 C170.08570313 145.375625 170.495625 144.798125 170.91796875 144.203125 C169.42997181 140.0618323 167.16537894 138.95060689 163.29296875 137.078125 C148.1746495 130.00146492 127.81753102 128.53932497 114.91796875 141.203125 Z M31.91796875 275.203125 C31.91796875 275.533125 31.91796875 275.863125 31.91796875 276.203125 C33.56796875 276.203125 35.21796875 276.203125 36.91796875 276.203125 C36.91796875 275.873125 36.91796875 275.543125 36.91796875 275.203125 C35.26796875 275.203125 33.61796875 275.203125 31.91796875 275.203125 Z M21.91796875 300.203125 C21.91796875 300.533125 21.91796875 300.863125 21.91796875 301.203125 C23.56796875 301.203125 25.21796875 301.203125 26.91796875 301.203125 C26.91796875 300.873125 26.91796875 300.543125 26.91796875 300.203125 C25.26796875 300.203125 23.61796875 300.203125 21.91796875 300.203125 Z M6.91796875 324.203125 C6.91796875 324.533125 6.91796875 324.863125 6.91796875 325.203125 C8.89796875 325.203125 10.87796875 325.203125 12.91796875 325.203125 C12.91796875 324.873125 12.91796875 324.543125 12.91796875 324.203125 C10.93796875 324.203125 8.95796875 324.203125 6.91796875 324.203125 Z M-4.08203125 349.203125 C-4.08203125 349.533125 -4.08203125 349.863125 -4.08203125 350.203125 C-2.10203125 350.203125 -0.12203125 350.203125 1.91796875 350.203125 C1.91796875 349.873125 1.91796875 349.543125 1.91796875 349.203125 C-0.06203125 349.203125 -2.04203125 349.203125 -4.08203125 349.203125 Z " fill="#FDFDFD" transform="translate(219.08203125,47.796875)"/>
<path d="M0 0 C0 31.68 0 63.36 0 96 C7.92 96 15.84 96 24 96 C24 100.62 24 105.24 24 110 C1.89 110 -20.22 110 -43 110 C-43 105.38 -43 100.76 -43 96 C-34.09 96 -25.18 96 -16 96 C-16.33 70.59 -16.66 45.18 -17 19 C-24.59 21.97 -32.18 24.94 -40 28 C-43 17 -43 17 -42 12 C-39.32299805 10.33081055 -39.32299805 10.33081055 -35.76171875 8.88671875 C-35.12571243 8.62744095 -34.48970612 8.36816315 -33.83442688 8.10102844 C-32.48230969 7.55617372 -31.12611286 7.02135198 -29.76635742 6.49584961 C-27.72092338 5.70049645 -25.6962413 4.86415393 -23.66992188 4.02148438 C-22.34738665 3.49479579 -21.02384287 2.97063146 -19.69921875 2.44921875 C-18.51158936 1.97830811 -17.32395996 1.50739746 -16.1003418 1.0222168 C-12 0 -12 0 0 0 Z " fill="#FCFCFC" transform="translate(473,178)"/>
<path d="M0 0 C4.640625 -0.061875 9.28125 -0.12375 14.0625 -0.1875 C16.23791382 -0.22846802 16.23791382 -0.22846802 18.45727539 -0.27026367 C27.11191584 -0.32616211 32.10454692 0.30314787 39.25 5.25 C43.47997258 9.47997258 45.13333141 13.57911951 45.375 19.5 C45.08820735 26.00798712 42.9827508 30.36408113 38.25 34.8125 C30.49070334 41.05915399 22.587916 40.18262697 13 40 C13 45.28 13 50.56 13 56 C11 57 11 57 0 56 C0 37.52 0 19.04 0 0 Z M13 12 C13 17.28 13 22.56 13 28 C15.8153125 28.0928125 15.8153125 28.0928125 18.6875 28.1875 C20.27111328 28.23970703 20.27111328 28.23970703 21.88671875 28.29296875 C25.66283227 27.93762557 28.30050942 26.69949058 31 24 C31.5628208 18.7073729 31.5628208 18.7073729 29.625 14.0625 C24.6019714 10.77821207 18.84377593 11.94270808 13 12 Z " fill="#FDFDFD" transform="translate(431,367)"/>
<path d="M0 0 C6.40266857 6.40266857 7.02041303 13.54989096 7.3125 22.3125 C4.07498322 23.39167226 1.73498229 23.42675601 -1.66796875 23.41015625 C-2.83134766 23.40693359 -3.99472656 23.40371094 -5.19335938 23.40039062 C-6.40830078 23.39201172 -7.62324219 23.38363281 -8.875 23.375 C-10.10154297 23.37048828 -11.32808594 23.36597656 -12.59179688 23.36132812 C-15.62374668 23.34953065 -18.65559906 23.33306921 -21.6875 23.3125 C-20.9363418 25.30078375 -20.9363418 25.30078375 -19.6875 27.3125 C-14.95334556 29.18983711 -12.15253188 29.80082574 -7.375 27.9375 C-6.42173828 27.49277344 -6.42173828 27.49277344 -5.44921875 27.0390625 C-3.6875 26.3125 -3.6875 26.3125 -0.6875 26.3125 C2 28.8125 2 28.8125 4.3125 31.3125 C2.5729379 35.30326012 0.63751939 37.13415828 -3.078125 39.32421875 C-9.64716441 41.81219326 -17.82982763 41.57475019 -24.25 38.6875 C-29.77837427 35.30904906 -33.16811896 30.52626107 -35.1796875 24.4453125 C-36.72119743 17.97097077 -36.02582923 12.42303733 -33.08984375 6.45703125 C-24.88237078 -6.09422965 -12.256501 -7.69594249 0 0 Z M-20.625 9.1875 C-22.87111407 11.96665873 -22.87111407 11.96665873 -22.6875 14.3125 C-17.0775 14.3125 -11.4675 14.3125 -5.6875 14.3125 C-7.00047122 8.32711763 -7.00047122 8.32711763 -10.6875 6.3125 C-15.22619719 5.64010042 -17.6345137 5.69433936 -20.625 9.1875 Z " fill="#FCFCFC" transform="translate(514.6875,383.6875)"/>
<path d="M0 0 C4.29 0 8.58 0 13 0 C13.06058594 1.83046875 13.12117187 3.6609375 13.18359375 5.546875 C13.26800565 7.94792454 13.35265333 10.34896579 13.4375 12.75 C13.47681641 13.9565625 13.51613281 15.163125 13.55664062 16.40625 C13.61948242 18.14648438 13.61948242 18.14648438 13.68359375 19.921875 C13.72025146 20.99018555 13.75690918 22.05849609 13.79467773 23.15917969 C13.97137202 25.60390583 14.17167835 27.69713885 15 30 C17.73905345 31.36952673 19.97087332 31.12621361 23 31 C23.66 30.67 24.32 30.34 25 30 C26.07955212 26.76134365 26.20441741 24.20844162 26.31640625 20.80078125 C26.35830078 19.59228516 26.40019531 18.38378906 26.44335938 17.13867188 C26.48267578 15.87603516 26.52199219 14.61339844 26.5625 13.3125 C26.60568359 12.03826172 26.64886719 10.76402344 26.69335938 9.45117188 C26.79954789 6.30091273 26.90028813 3.1504708 27 0 C31.29 0 35.58 0 40 0 C40 14.19 40 28.38 40 43 C37.47524538 44.26237731 35.68799534 44.09856404 32.875 44.0625 C31.96492187 44.05347656 31.05484375 44.04445313 30.1171875 44.03515625 C29.41851563 44.02355469 28.71984375 44.01195312 28 44 C27.34 42.68 26.68 41.36 26 40 C25.21625 40.66 24.4325 41.32 23.625 42 C19.33318544 44.84764947 14.97369731 44.77764648 10 44 C5.37429271 41.94413009 3.01289768 39.28199173 0.81591797 34.72851562 C-1.02540308 28.57094409 -0.39818895 21.86932871 -0.25 15.5 C-0.22990494 13.99481542 -0.21165948 12.48960495 -0.1953125 10.984375 C-0.15155298 7.32237263 -0.08269216 3.66135422 0 0 Z " fill="#FDFDFD" transform="translate(560,380)"/>
<path d="M0 0 C0 4.62 0 9.24 0 14 C-1.258125 14.268125 -2.51625 14.53625 -3.8125 14.8125 C-6.98960977 15.60958408 -9.08610587 16.18544981 -11 19 C-11.9731681 21.9195043 -12.1929546 24.05444951 -12.31640625 27.10546875 C-12.35830078 28.08837891 -12.40019531 29.07128906 -12.44335938 30.08398438 C-12.48267578 31.10814453 -12.52199219 32.13230469 -12.5625 33.1875 C-12.60568359 34.22326172 -12.64886719 35.25902344 -12.69335938 36.32617188 C-12.79944366 38.8839819 -12.90150146 41.44188845 -13 44 C-14.97854258 44.19397476 -16.9578648 44.38001321 -18.9375 44.5625 C-20.59072266 44.71912109 -20.59072266 44.71912109 -22.27734375 44.87890625 C-23.62505859 44.93884766 -23.62505859 44.93884766 -25 45 C-26 44 -26 44 -26.12025452 42.24729919 C-26.11803391 41.48562943 -26.11581329 40.72395966 -26.11352539 39.93920898 C-26.11344986 39.07839218 -26.11337433 38.21757538 -26.11329651 37.33067322 C-26.10813522 36.39526199 -26.10297394 35.45985077 -26.09765625 34.49609375 C-26.0962413 33.54307877 -26.09482635 32.59006378 -26.09336853 31.60816956 C-26.08775152 28.55124835 -26.07519616 25.49439923 -26.0625 22.4375 C-26.05748719 20.37044376 -26.05292391 18.30338638 -26.04882812 16.23632812 C-26.03777656 11.15752412 -26.02050055 6.0787743 -26 1 C-21.71 1 -17.42 1 -13 1 C-12.67 2.32 -12.34 3.64 -12 5 C-11.401875 4.360625 -10.80375 3.72125 -10.1875 3.0625 C-6.71751308 -0.20920196 -4.8629683 0 0 0 Z M-14 6 C-13 8 -13 8 -13 8 Z " fill="#FCFCFC" transform="translate(555,379)"/>
<path d="M0 0 C5.32471936 3.22470628 8.75735206 6.87553094 10.4296875 12.93359375 C11.50180661 19.3775939 10.20337345 24.61559939 6.4296875 29.93359375 C2.31842424 34.37150532 -1.93734059 36.68980005 -7.9453125 37.24609375 C-14.76870761 36.65787003 -19.15200073 34.08829081 -23.5703125 28.93359375 C-26.58485626 24.9500895 -27.71743727 20.90824992 -27.5703125 15.93359375 C-26.14024862 9.12802189 -22.59252239 4.0923151 -16.9453125 0.05859375 C-11.21347663 -1.85201821 -5.67963972 -2.35644626 0 0 Z M-20.20703125 9.73828125 C-22.73177687 13.80391746 -22.1587039 18.32007026 -21.5703125 22.93359375 C-19.70374642 27.11470176 -18.24019714 28.53423944 -14.3203125 30.87109375 C-9.97590282 32.10200982 -6.86235312 32.37007793 -2.5703125 30.93359375 C1.04278562 28.78806749 4.25187724 26.05592967 5.4296875 21.93359375 C5.88010981 16.34835707 5.68091324 12.70205817 2.4296875 7.93359375 C-1.67443583 4.22033931 -5.01060617 3.28936517 -10.390625 3.54296875 C-14.63333353 4.30331078 -17.37996696 6.62108865 -20.20703125 9.73828125 Z " fill="#F8F8F8" transform="translate(399.5703125,63.06640625)"/>
<path d="M0 0 C1.8975 -0.061875 3.795 -0.12375 5.75 -0.1875 C7.35101563 -0.23970703 7.35101563 -0.23970703 8.984375 -0.29296875 C12.34278616 0.03330176 13.67982539 0.57991356 16 3 C16.46369995 7.25058287 16.33012265 10.35918336 14 14 C14.7425 14.680625 14.7425 14.680625 15.5 15.375 C17 17 17 17 17 19 C14.25 19.3125 14.25 19.3125 11 19 C8.75 16.5625 8.75 16.5625 7 14 C6.34 13.67 5.68 13.34 5 13 C5 14.98 5 16.96 5 19 C3.35 19 1.7 19 0 19 C0 12.73 0 6.46 0 0 Z M5 5 C5 6.32 5 7.64 5 9 C6.98 8.67 8.96 8.34 11 8 C10.67 7.01 10.34 6.02 10 5 C8.35 5 6.7 5 5 5 Z " fill="#FAFAFA" transform="translate(384,71)"/>
</svg>
