<?xml version="1.0" encoding="UTF-8"?>
<svg version="1.1" xmlns="http://www.w3.org/2000/svg" width="512" height="512">
<path d="M0 0 C1.01790619 0.00215515 2.03581238 0.0043103 3.08456421 0.00653076 C17.69363523 0.05620146 32.02575853 0.30709809 46.375 3.3125 C47.34985352 3.51117676 48.32470703 3.70985352 49.32910156 3.91455078 C97.87521786 14.0695281 141.45731258 36.0721281 177.375 70.3125 C178.31279297 71.055 178.31279297 71.055 179.26953125 71.8125 C180.375 73.3125 180.375 73.3125 180.3066864 75.5083313 C179.00226387 79.4343528 176.4434771 81.82606639 173.57348633 84.67919922 C172.96850311 85.29601059 172.3635199 85.91282196 171.74020386 86.54832458 C169.73954118 88.58185684 167.72426807 90.60010434 165.70703125 92.6171875 C164.30998748 94.02454413 162.91332003 95.43227442 161.51701355 96.84036255 C158.58917126 99.78763673 155.65344255 102.7267864 152.71264648 105.66113281 C148.94203869 109.42573516 145.19719607 113.21487489 141.45851612 117.01115227 C138.58208505 119.92451159 135.68982837 122.821747 132.79279137 125.71460342 C131.40492217 127.10534979 130.02266675 128.50172156 128.64615822 129.90371323 C126.72147563 131.86025971 124.77594861 133.79339742 122.82348633 135.72216797 C122.2575325 136.30700455 121.69157867 136.89184113 121.10847473 137.49440002 C119.48152161 139.07467651 119.48152161 139.07467651 116.375 141.3125 C113.1525441 141.24132613 111.33199944 141.06022929 108.78515625 139.0703125 C108.34042969 138.53148437 107.89570313 137.99265625 107.4375 137.4375 C81.74864012 109.94591312 40.39862799 98.15217777 4.1484375 96.03125 C-36.37643139 95.02442096 -77.76024526 110.21240845 -107.22265625 138.0859375 C-109.625 140.3125 -109.625 140.3125 -112.234375 142.38671875 C-139.82407009 164.61175091 -154.92934934 205.43096911 -158.875 239.4375 C-163.01690544 280.11973118 -151.5753861 323.31809344 -125.625 355.3125 C-120.5762859 361.25054466 -115.15094831 366.81959174 -109.625 372.3125 C-108.84056519 373.12908081 -108.84056519 373.12908081 -108.0402832 373.9621582 C-80.49231505 402.34692766 -38.80805212 415.73933906 0 416.625 C43.49830425 415.89066914 83.34994537 399.33755463 114.01953125 368.66796875 C115.32573112 367.36176888 116.64421358 366.06647228 118.0078125 364.8203125 C134.13088408 349.87903674 144.39748059 328.37312514 151.96923828 308.08007812 C152.23407013 307.37113403 152.49890198 306.66218994 152.77175903 305.9317627 C152.97082855 305.39740601 153.16989807 304.86304932 153.375 304.3125 C152.21044501 304.31526538 152.21044501 304.31526538 151.02236366 304.31808662 C132.15317209 304.36220767 113.28399078 304.39532827 94.41475868 304.41612434 C85.28983333 304.42644783 76.16494235 304.44052858 67.04003906 304.46337891 C59.08907689 304.48328004 51.13813961 304.49620863 43.18715322 304.50067699 C38.97508564 304.50328994 34.76308928 304.50945363 30.55104446 304.52396011 C26.58994744 304.53749234 22.62895127 304.54173153 18.66783333 304.53871536 C17.21091604 304.53926749 15.75399552 304.54327085 14.29709816 304.55091095 C12.31410765 304.5608035 10.33106354 304.55729082 8.34805298 304.55300903 C6.68052947 304.55577441 6.68052947 304.55577441 4.97931862 304.55859566 C2.375 304.3125 2.375 304.3125 0.375 302.3125 C0.17621352 299.4009779 0.10233711 296.58454967 0.11621094 293.671875 C0.11095398 292.33026306 0.11095398 292.33026306 0.10559082 290.96154785 C0.09676406 287.9951204 0.10262599 285.02893002 0.109375 282.0625 C0.10802862 280.00748651 0.10608832 277.95247333 0.10357666 275.89746094 C0.10062412 271.58655775 0.10492724 267.27573733 0.11425781 262.96484375 C0.12565239 257.42951876 0.11909362 251.8943877 0.10711288 246.35906982 C0.09989781 242.11440562 0.10218059 237.86978765 0.10736847 233.62512207 C0.10870594 231.58369931 0.10705385 229.5422724 0.10240936 227.50085449 C0.09734993 224.65149763 0.10504614 221.80245812 0.11621094 218.953125 C0.11216248 218.1031897 0.10811401 217.25325439 0.10394287 216.37756348 C0.14647215 210.54102785 0.14647215 210.54102785 2.375 208.3125 C4.23692703 208.06180167 4.23692703 208.06180167 6.55108643 208.06081772 C7.43165081 208.05560222 8.31221519 208.05038673 9.21946335 208.04501319 C10.1927924 208.04947463 11.16612144 208.05393608 12.16894531 208.05853271 C13.71297468 208.05385274 13.71297468 208.05385274 15.28819656 208.04907823 C18.75989651 208.04105939 22.23142355 208.04743698 25.703125 208.05371094 C28.18290307 208.0510028 30.66268033 208.04744287 33.14245605 208.04309082 C39.19216529 208.03489476 45.24180589 208.03612627 51.29151249 208.0419161 C56.20659353 208.04642601 61.12166065 208.04704841 66.03674316 208.04486847 C67.08455707 208.04440877 67.08455707 208.04440877 68.15353894 208.04393978 C69.57244842 208.04330036 70.99135789 208.04265193 72.41026735 208.0419946 C85.7271077 208.03628639 99.04392056 208.04285688 112.3607564 208.05359533 C123.79650763 208.06253129 135.23221826 208.06097939 146.66796875 208.05175781 C159.93593897 208.04106383 173.20388506 208.03683576 186.47185898 208.04298234 C187.88565826 208.04361946 189.29945755 208.0442482 190.71325684 208.04486847 C191.75678342 208.0453313 191.75678342 208.0453313 192.82139134 208.04580347 C197.73269939 208.04753304 202.64399217 208.0446097 207.55529785 208.03990936 C214.16095725 208.03372665 220.76655159 208.03810483 227.37220764 208.04969788 C229.80310437 208.05235263 232.23400753 208.05156559 234.66490173 208.04717255 C237.9703749 208.04174772 241.27559769 208.04851383 244.58105469 208.05853271 C245.55438374 208.05407127 246.52771278 208.04960983 247.53053665 208.04501319 C248.41110104 208.05022868 249.29166542 208.05544418 250.19891357 208.06081772 C251.34442247 208.06130478 251.34442247 208.06130478 252.51307297 208.06180167 C254.375 208.3125 254.375 208.3125 256.375 210.3125 C256.64242554 212.98410034 256.64242554 212.98410034 256.66552734 216.42919922 C256.6846669 218.3655574 256.6846669 218.3655574 256.70419312 220.34103394 C256.70725834 221.76641693 256.70948204 223.19180195 256.7109375 224.6171875 C256.71737706 226.09424972 256.72410625 227.57131071 256.73110962 229.04837036 C256.74312675 232.16736782 256.74678791 235.28625445 256.74560547 238.40527344 C256.74544555 241.54711601 256.75888808 244.68835923 256.78662109 247.83007812 C257.34537504 312.07545993 238.84050655 373.08396833 196.375 422.3125 C195.74078125 423.05757813 195.1065625 423.80265625 194.453125 424.5703125 C182.64198485 438.07529833 169.89139772 450.74668743 155.375 461.3125 C154.22505169 462.16899066 153.07531411 463.02576433 151.92578125 463.8828125 C143.73565742 469.92284209 135.23120382 475.30617614 126.375 480.3125 C125.66778809 480.7146875 124.96057617 481.116875 124.23193359 481.53125 C98.02725553 496.28470851 69.08953614 505.81420334 39.375 510.3125 C38.25617432 510.48982666 37.13734863 510.66715332 35.98461914 510.84985352 C24.26264016 512.53126346 12.64000982 512.66983932 0.8125 512.625 C-0.20823608 512.62284485 -1.22897217 512.6206897 -2.28063965 512.61846924 C-16.92329998 512.56880099 -31.23488899 512.25829688 -45.625 509.3125 C-47.11990967 509.02246094 -47.11990967 509.02246094 -48.64501953 508.7265625 C-95.09865335 499.54773807 -137.90140218 478.61943716 -172.625 446.3125 C-174.01660821 445.0993031 -175.41227188 443.89073786 -176.8125 442.6875 C-183.28218811 437.03626641 -189.11010243 430.89277551 -194.625 424.3125 C-195.04910156 423.80750977 -195.47320312 423.30251953 -195.91015625 422.78222656 C-208.17786827 408.07976668 -218.75762709 392.28541744 -227.625 375.3125 C-228.01896973 374.56790527 -228.41293945 373.82331055 -228.81884766 373.05615234 C-240.34739556 350.99975094 -248.12544698 326.76193457 -252.625 302.3125 C-252.86621582 301.11149658 -252.86621582 301.11149658 -253.11230469 299.88623047 C-258.58841256 271.89033464 -258.47207699 238.22927188 -252.625 210.3125 C-252.42632324 209.33764648 -252.22764648 208.36279297 -252.02294922 207.35839844 C-241.90232806 158.9765226 -219.9858123 114.98821731 -185.625 79.3125 C-184.99287598 78.65314453 -184.36075195 77.99378906 -183.70947266 77.31445312 C-174.56502521 67.82619695 -165.26765991 59.0862956 -154.625 51.3125 C-153.47394983 50.45443848 -152.32290823 49.59636549 -151.171875 48.73828125 C-142.98224019 42.70072604 -134.47961724 37.31792698 -125.625 32.3125 C-124.91778809 31.9103125 -124.21057617 31.508125 -123.48193359 31.09375 C-100.34654164 18.0683259 -75.17537591 9.31948539 -49.1875 4 C-48.46860596 3.85264404 -47.74971191 3.70528809 -47.0090332 3.5534668 C-31.36274391 0.57960912 -15.88931954 -0.06050362 0 0 Z " fill="#4BAE51" transform="translate(255.625,-0.3125)"/>
<path d="M0 0 C1.01790619 0.00215515 2.03581238 0.0043103 3.08456421 0.00653076 C17.69363523 0.05620146 32.02575853 0.30709809 46.375 3.3125 C47.34985352 3.51117676 48.32470703 3.70985352 49.32910156 3.91455078 C97.87521786 14.0695281 141.45731258 36.0721281 177.375 70.3125 C178.31279297 71.055 178.31279297 71.055 179.26953125 71.8125 C180.375 73.3125 180.375 73.3125 180.3066864 75.5083313 C179.00226387 79.4343528 176.4434771 81.82606639 173.57348633 84.67919922 C172.96850311 85.29601059 172.3635199 85.91282196 171.74020386 86.54832458 C169.73954118 88.58185684 167.72426807 90.60010434 165.70703125 92.6171875 C164.30998748 94.02454413 162.91332003 95.43227442 161.51701355 96.84036255 C158.58917126 99.78763673 155.65344255 102.7267864 152.71264648 105.66113281 C148.94203869 109.42573516 145.19719607 113.21487489 141.45851612 117.01115227 C138.58208505 119.92451159 135.68982837 122.821747 132.79279137 125.71460342 C131.40492217 127.10534979 130.02266675 128.50172156 128.64615822 129.90371323 C126.72147563 131.86025971 124.77594861 133.79339742 122.82348633 135.72216797 C122.2575325 136.30700455 121.69157867 136.89184113 121.10847473 137.49440002 C119.48152161 139.07467651 119.48152161 139.07467651 116.375 141.3125 C113.1525441 141.24132613 111.33199944 141.06022929 108.78515625 139.0703125 C108.34042969 138.53148437 107.89570313 137.99265625 107.4375 137.4375 C81.74864012 109.94591312 40.39862799 98.15217777 4.1484375 96.03125 C-36.37643139 95.02442096 -77.76024526 110.21240845 -107.22265625 138.0859375 C-109.625 140.3125 -109.625 140.3125 -112.234375 142.38671875 C-139.82407009 164.61175091 -154.92934934 205.43096911 -158.875 239.4375 C-161.14821054 261.7652132 -158.68730323 283.41519566 -151.9296875 304.78125 C-150.63770416 308.95836578 -150.03401435 312.96298158 -149.625 317.3125 C-158.40337134 323.39651974 -167.22825278 329.40270924 -176.125 335.3125 C-182.36296112 339.45785615 -188.58400492 343.62321027 -194.75 347.875 C-195.37640381 348.3069165 -196.00280762 348.73883301 -196.64819336 349.18383789 C-199.44718104 351.11573432 -202.24475032 353.04968149 -205.04248047 354.98339844 C-207.58899272 356.74159992 -210.13808255 358.49601457 -212.6875 360.25 C-213.86626709 361.06609741 -213.86626709 361.06609741 -215.06884766 361.89868164 C-219.48298873 364.93239869 -223.93357475 367.72692035 -228.625 370.3125 C-232.43397719 366.86695934 -233.9067351 362.65758151 -235.875 358 C-236.46716309 356.60189087 -236.46716309 356.60189087 -237.07128906 355.17553711 C-244.15200091 338.10096341 -249.12191389 320.44631571 -252.625 302.3125 C-252.8727417 301.09409424 -252.8727417 301.09409424 -253.12548828 299.85107422 C-258.59110224 271.86735682 -258.4689934 238.21454936 -252.625 210.3125 C-252.42632324 209.33764648 -252.22764648 208.36279297 -252.02294922 207.35839844 C-241.90232806 158.9765226 -219.9858123 114.98821731 -185.625 79.3125 C-184.99287598 78.65314453 -184.36075195 77.99378906 -183.70947266 77.31445312 C-174.56502521 67.82619695 -165.26765991 59.0862956 -154.625 51.3125 C-153.47394983 50.45443848 -152.32290823 49.59636549 -151.171875 48.73828125 C-142.98224019 42.70072604 -134.47961724 37.31792698 -125.625 32.3125 C-124.91778809 31.9103125 -124.21057617 31.508125 -123.48193359 31.09375 C-100.34654164 18.0683259 -75.17537591 9.31948539 -49.1875 4 C-48.46860596 3.85264404 -47.74971191 3.70528809 -47.0090332 3.5534668 C-31.36274391 0.57960912 -15.88931954 -0.06050362 0 0 Z " fill="#F34336" transform="translate(255.625,-0.3125)"/>
<path d="M0 0 C0.88056438 -0.00521549 1.76112877 -0.01043099 2.66837692 -0.01580453 C3.64170597 -0.01134309 4.61503502 -0.00688164 5.61785889 -0.002285 C6.6472118 -0.00540498 7.67656471 -0.00852497 8.73711014 -0.01173949 C12.20881009 -0.01975833 15.68033712 -0.01338074 19.15203857 -0.00710678 C21.63181664 -0.00981492 24.1115939 -0.01337485 26.59136963 -0.0177269 C32.64107886 -0.02592296 38.69071947 -0.02469145 44.74042606 -0.01890162 C49.6555071 -0.01439171 54.57057423 -0.0137693 59.48565674 -0.01594925 C60.53347065 -0.01640895 60.53347065 -0.01640895 61.60245252 -0.01687793 C63.02136199 -0.01751736 64.44027146 -0.01816579 65.85918093 -0.01882312 C79.17602128 -0.02453133 92.49283413 -0.01796083 105.80966997 -0.00722238 C117.2454212 0.00171358 128.68113183 0.00016167 140.11688232 -0.00905991 C153.38485254 -0.01975388 166.65279863 -0.02398196 179.92077255 -0.01783538 C181.33457183 -0.01719826 182.74837112 -0.01656951 184.16217041 -0.01594925 C184.8578548 -0.0156407 185.55353919 -0.01533215 186.27030492 -0.01501425 C191.18161296 -0.01328468 196.09290575 -0.01620802 201.00421143 -0.02090836 C207.60987083 -0.02709107 214.21546516 -0.02271289 220.82112122 -0.01111984 C223.25201794 -0.00846509 225.6829211 -0.00925213 228.11381531 -0.01364517 C231.41928848 -0.01907 234.72451126 -0.01230388 238.02996826 -0.002285 C239.00329731 -0.00674645 239.97662636 -0.01120789 240.97945023 -0.01580453 C241.86001461 -0.01058903 242.74057899 -0.00537354 243.64782715 0 C244.79333605 0.00048706 244.79333605 0.00048706 245.96198654 0.00098395 C247.82391357 0.25168228 247.82391357 0.25168228 249.82391357 2.25168228 C250.09133911 4.92328262 250.09133911 4.92328262 250.11444092 8.3683815 C250.12720062 9.65928696 250.13996033 10.95019241 250.15310669 12.28021622 C250.15617192 13.70559922 250.15839561 15.13098423 250.15985107 16.55636978 C250.16629064 18.033432 250.17301983 19.51049299 250.18002319 20.98755264 C250.19204032 24.1065501 250.19570148 27.22543673 250.19451904 30.34445572 C250.19435912 33.48629829 250.20780165 36.62754151 250.23553467 39.76926041 C250.83574255 108.78100576 228.92287481 170.52005054 182.82391357 222.25168228 C177.6437064 219.39618546 172.81890119 216.25539701 168.01141357 212.81418228 C167.27785645 212.29267593 166.54429932 211.77116959 165.78851318 211.23386002 C158.194575 205.82550608 150.63958024 200.36285071 143.09002686 194.89279556 C140.0846234 192.71629028 137.07646489 190.54361915 134.06732178 188.37228775 C132.58146005 187.29892284 131.09690251 186.22375002 129.6137085 185.14670181 C125.66733018 182.28426439 121.69850494 179.46178052 117.69110107 176.68527603 C116.85578857 176.10004166 116.02047607 175.51480728 115.15985107 174.91183853 C113.55021239 173.78509145 111.9332432 172.6687266 110.30828857 171.56418228 C109.5889917 171.05758072 108.86969482 170.55097916 108.12860107 170.02902603 C107.48906494 169.58808609 106.84952881 169.14714615 106.19061279 168.69284439 C104.82391357 167.25168228 104.82391357 167.25168228 104.82391357 163.25168228 C106.86155468 160.96705437 109.04966586 158.94548867 111.32781982 156.90402603 C127.44162442 141.72210411 137.78014087 120.48987269 145.41815186 100.01926041 C145.6829837 99.31031631 145.94781555 98.60137222 146.22067261 97.87094498 C146.41974213 97.33658829 146.61881165 96.8022316 146.82391357 96.25168228 C146.04754358 96.25352587 145.27117359 96.25536945 144.47127724 96.25726891 C125.60208567 96.30138995 106.73290436 96.33451055 87.86367226 96.35530663 C78.7387469 96.36563011 69.61385593 96.37971086 60.48895264 96.40256119 C52.53799046 96.42246232 44.58705318 96.43539091 36.63606679 96.43985927 C32.42399921 96.44247223 28.21200285 96.44863591 23.99995804 96.4631424 C20.03886101 96.47667462 16.07786484 96.48091381 12.1167469 96.47789764 C10.65982961 96.47844977 9.2029091 96.48245313 7.74601173 96.49009323 C5.76302123 96.49998578 3.77997711 96.49647311 1.79696655 96.49219131 C0.12944304 96.49495669 0.12944304 96.49495669 -1.57176781 96.49777794 C-4.17608643 96.25168228 -4.17608643 96.25168228 -6.17608643 94.25168228 C-6.37487291 91.34016018 -6.44874931 88.52373195 -6.43487549 85.61105728 C-6.43838013 84.71664932 -6.44188477 83.82224136 -6.44549561 82.90073013 C-6.45432237 79.93430268 -6.44846044 76.96811231 -6.44171143 74.00168228 C-6.4430578 71.94666879 -6.44499811 69.89165561 -6.44750977 67.83664322 C-6.45046231 63.52574003 -6.44615919 59.21491961 -6.43682861 54.90402603 C-6.42543403 49.36870104 -6.4319928 43.83356998 -6.44397354 38.29825211 C-6.45118861 34.0535879 -6.44890583 29.80896993 -6.44371796 25.56430435 C-6.44238048 23.52288159 -6.44403257 21.48145469 -6.44867706 19.44003677 C-6.4537365 16.59067992 -6.44604029 13.74164041 -6.43487549 10.89230728 C-6.43892395 10.04237198 -6.44297241 9.19243668 -6.44714355 8.31674576 C-6.405291 2.57307984 -6.09528425 0.00259164 0 0 Z " fill="#2196F2" transform="translate(262.17608642578125,207.74831771850586)"/>
<path d="M0 0 C2.27375926 1.53142654 4.44698294 3.09256397 6.625 4.75 C7.97341811 5.75723403 9.32240062 6.76371283 10.671875 7.76953125 C11.37892578 8.29885254 12.08597656 8.82817383 12.81445312 9.37353516 C16.47509599 12.09775352 20.1741042 14.76834965 23.875 17.4375 C25.00723999 18.25480591 25.00723999 18.25480591 26.16235352 19.08862305 C33.35492375 24.27165084 40.5953713 29.38566838 47.84716797 34.48535156 C51.60919662 37.13216782 55.36695678 39.78502975 59.125 42.4375 C60.15475952 43.1636853 60.15475952 43.1636853 61.20532227 43.90454102 C65.48107319 46.92132957 69.74444143 49.95478861 74 53 C73.4121875 54.7634375 73.4121875 54.7634375 72.8125 56.5625 C72.53921875 57.39007813 72.2659375 58.21765625 71.984375 59.0703125 C71.28401806 61.15470815 70.56304101 63.23222434 69.828125 65.3046875 C57.92853335 99.46092279 56.74754098 134.85436966 67.6953125 169.46875 C68.98729584 173.64586578 69.59098565 177.65048158 70 182 C61.22162866 188.08401974 52.39674722 194.09020924 43.5 200 C37.26203888 204.14535615 31.04099508 208.31071027 24.875 212.5625 C24.24859619 212.9944165 23.62219238 213.42633301 22.97680664 213.87133789 C20.17781896 215.80323432 17.38024968 217.73718149 14.58251953 219.67089844 C12.03600728 221.42909992 9.48691745 223.18351457 6.9375 224.9375 C5.75873291 225.75359741 5.75873291 225.75359741 4.55615234 226.58618164 C0.14201127 229.61989869 -4.30857475 232.41442035 -9 235 C-12.80897719 231.55445934 -14.2817351 227.34508151 -16.25 222.6875 C-16.84216309 221.28939087 -16.84216309 221.28939087 -17.44628906 219.86303711 C-24.52700091 202.78846341 -29.49691389 185.13381571 -33 167 C-33.16516113 166.18772949 -33.33032227 165.37545898 -33.50048828 164.53857422 C-38.96610224 136.55485682 -38.8439934 102.90204936 -33 75 C-32.80132324 74.02514648 -32.60264648 73.05029297 -32.39794922 72.04589844 C-27.75050005 49.82865456 -20.80504429 28.435818 -10.95068359 7.97949219 C-10.08105833 6.16877785 -9.25127901 4.33906561 -8.42578125 2.5078125 C-6.24375951 -1.33015451 -3.85201318 -1.48674193 0 0 Z " fill="#FDC008" transform="translate(36,135)"/>
<path d="M0 0 C4.37823917 -0.04938149 8.75633146 -0.0857104 13.13476562 -0.10986328 C14.6247032 -0.11993043 16.11462097 -0.13358518 17.60449219 -0.15087891 C19.74419028 -0.17509653 21.88362753 -0.18647564 24.0234375 -0.1953125 C25.31169434 -0.20578613 26.59995117 -0.21625977 27.92724609 -0.22705078 C31 0 31 0 33 2 C33.26742554 4.67160034 33.26742554 4.67160034 33.29052734 8.11669922 C33.30328705 9.40760468 33.31604675 10.69851013 33.32919312 12.02853394 C33.33225834 13.45391693 33.33448204 14.87930195 33.3359375 16.3046875 C33.34237706 17.78174972 33.34910625 19.25881071 33.35610962 20.73587036 C33.36812675 23.85486782 33.37178791 26.97375445 33.37060547 30.09277344 C33.37044555 33.23461601 33.38388808 36.37585923 33.41162109 39.51757812 C34.01182898 108.52932347 12.09896124 170.26836826 -34 222 C-41.045966 218.23122749 -47.47567498 213.59155505 -54 209 C-52.70488319 206.27294506 -51.27519219 203.85479649 -49.49609375 201.41796875 C-49.0072168 200.7410498 -48.51833984 200.06413086 -48.01464844 199.36669922 C-47.49418945 198.64756348 -46.97373047 197.92842773 -46.4375 197.1875 C-41.25450749 189.9260249 -36.441032 182.55017343 -32.02490234 174.79882812 C-31.03532292 173.06199601 -30.02773978 171.33545982 -29.01953125 169.609375 C-16.83400551 147.91378825 -8.92010831 123.81351959 -3.75 99.5625 C-3.5034668 98.42071289 -3.25693359 97.27892578 -3.00292969 96.10253906 C1.11357803 75.85023206 1.29521838 55.63990636 1.19561768 35.06072998 C1.18465864 32.19432336 1.1851533 29.32796325 1.18575573 26.46153927 C1.18548446 23.68806108 1.18001481 20.91461368 1.17275429 18.14114571 C1.168053 16.18735753 1.1662979 14.23356299 1.16459656 12.2797699 C1.15821671 11.1032637 1.15183685 9.92675751 1.14526367 8.71459961 C1.14145187 7.6801622 1.13764008 6.64572479 1.13371277 5.5799408 C1.10887826 2.88213211 1.10887826 2.88213211 0 0 Z " fill="#1E88E5" transform="translate(479,208)"/>
<path d="M0 0 C7.83485963 5.0988769 15.4149827 10.54051387 23 16 C22.608125 17.175625 22.21625 18.35125 21.8125 19.5625 C21.53921875 20.39007813 21.2659375 21.21765625 20.984375 22.0703125 C20.28401806 24.15470815 19.56304101 26.23222434 18.828125 28.3046875 C6.92853335 62.46092279 5.74754098 97.85436966 16.6953125 132.46875 C17.98729584 136.64586578 18.59098565 140.65048158 19 145 C16.48156289 146.75353364 13.96037968 148.50287804 11.4375 150.25 C10.73302734 150.74113281 10.02855469 151.23226562 9.30273438 151.73828125 C4.97664629 154.72866472 0.60474002 157.45861918 -4 160 C-21.67299866 127.07619031 -29.16803117 86.7462597 -20 50 C-19.80132324 49.18450684 -19.60264648 48.36901367 -19.39794922 47.52880859 C-15.26044236 30.95708636 -9.66031072 14.23432148 0 0 Z " fill="#FDB301" transform="translate(87,172)"/>
<path d="M0 0 C51.63416877 -0.63721682 51.63416877 -0.63721682 69 3 C69.97485352 3.19867676 70.94970703 3.39735352 71.95410156 3.60205078 C120.50021786 13.7570281 164.08231258 35.7596281 200 70 C200.62519531 70.495 201.25039063 70.99 201.89453125 71.5 C203 73 203 73 202.9316864 75.1958313 C201.62726387 79.1218528 199.0684771 81.51356639 196.19848633 84.36669922 C195.59350311 84.98351059 194.9885199 85.60032196 194.36520386 86.23582458 C192.36454118 88.26935684 190.34926807 90.28760434 188.33203125 92.3046875 C186.93498748 93.71204413 185.53832003 95.11977442 184.14201355 96.52786255 C181.21417126 99.47513673 178.27844255 102.4142864 175.33764648 105.34863281 C171.56703869 109.11323516 167.82219607 112.90237489 164.08351612 116.69865227 C161.20708505 119.61201159 158.31482837 122.509247 155.41779137 125.40210342 C154.02992217 126.79284979 152.64766675 128.18922156 151.27115822 129.59121323 C149.34647563 131.54775971 147.40094861 133.48089742 145.44848633 135.40966797 C144.8825325 135.99450455 144.31657867 136.57934113 143.73347473 137.18190002 C142.10652161 138.76217651 142.10652161 138.76217651 139 141 C135.56518921 140.93751033 133.8368524 140.6499146 131.12890625 138.546875 C130.61199219 137.95390625 130.09507812 137.3609375 129.5625 136.75 C126.32084786 133.24062212 122.95893489 130.66622146 119 128 C119.72620041 127.43449432 120.45240082 126.86898865 121.2006073 126.28634644 C123.87197139 124.10456474 126.32814732 121.83209861 128.7902832 119.41845703 C129.71086014 118.51717072 130.63143707 117.6158844 131.57991028 116.68728638 C132.57069753 115.71129929 133.56097593 114.73479541 134.55078125 113.7578125 C135.05369375 113.26147182 135.55660625 112.76513115 136.07475853 112.25374985 C138.73013793 109.63081123 141.38153777 107.00391211 144.03051758 104.37451172 C146.21945439 102.20345211 148.4166054 100.04124561 150.62133789 97.88623047 C153.29234061 95.27536605 155.94836911 92.65012366 158.5943203 90.01388168 C159.60234064 89.01441664 160.61548527 88.02009194 161.63381386 87.03113174 C163.05539821 85.6484065 164.45654837 84.24476648 165.85668945 82.84033203 C166.65879349 82.04853546 167.46089752 81.25673889 168.28730774 80.44094849 C170.42900149 77.3885822 170.46837238 75.65535768 170 72 C168.36709307 69.74427304 168.36709307 69.74427304 165.9375 67.875 C165.01453125 67.10285156 164.0915625 66.33070312 163.140625 65.53515625 C162.63208984 65.12539551 162.12355469 64.71563477 161.59960938 64.29345703 C159.95833886 62.96631246 158.34622601 61.60876285 156.734375 60.24609375 C115.63617693 25.96674954 63.19757498 3.81798843 9.5 1.4375 C8.5821875 1.39431641 7.664375 1.35113281 6.71875 1.30664062 C4.47927939 1.20166544 2.23971908 1.09950752 0 1 C0 0.67 0 0.34 0 0 Z " fill="#E23A37" transform="translate(233,0)"/>
<path d="M0 0 C2.75889458 2.75889458 3.93259966 6.11024692 5.5 9.625 C12.12372064 24.00723709 20.50025845 36.20235062 31 48 C32.06531744 49.28934393 33.1283998 50.58054421 34.1875 51.875 C37.44561277 55.65292563 41.16776244 58.82020432 45 62 C45.73992187 62.62777344 46.47984375 63.25554687 47.2421875 63.90234375 C54.09712656 69.57733428 61.37873743 74.43541435 69 79 C69.62729004 79.37801758 70.25458008 79.75603516 70.90087891 80.14550781 C92.74484483 93.08067044 116.98954898 98.58969576 142 101 C142 101.33 142 101.66 142 102 C91.7824886 103.0258134 46.42045147 94.62777954 8.76953125 58.67578125 C7.85558594 57.79277344 6.94164063 56.90976562 6 56 C5.13761719 55.18917969 4.27523437 54.37835938 3.38671875 53.54296875 C-7.53816091 43.02586065 -15.50935301 31.08149222 -23 18 C-19.23568031 13.73033328 -14.55166788 10.93516968 -9.8125 7.875 C-8.17039852 6.81418464 -6.5309288 5.74928068 -4.89453125 4.6796875 C-4.17112549 4.21288574 -3.44771973 3.74608398 -2.70239258 3.26513672 C-0.85896852 2.09388879 -0.85896852 2.09388879 0 0 Z " fill="#42A049" transform="translate(106,315)"/>
<path d="M0 0 C3.15111795 0.61612326 5.26992103 1.66518653 7.890625 3.50390625 C8.59960938 3.99697266 9.30859375 4.49003906 10.0390625 4.99804688 C11.13347656 5.77245117 11.13347656 5.77245117 12.25 6.5625 C12.99507812 7.08263672 13.74015625 7.60277344 14.5078125 8.13867188 C16.3423467 9.42049385 18.17283032 10.70771234 20 12 C17.78628334 16.97673755 14.07014383 20.27065045 10.25 24.0625 C9.48647217 24.82183838 8.72294434 25.58117676 7.9362793 26.36352539 C1.34572074 32.82516656 -5.55559262 38.56232729 -13 44 C-14.15105017 44.85806152 -15.30209177 45.71613451 -16.453125 46.57421875 C-24.64275981 52.61177396 -33.14538276 57.99457302 -42 63 C-42.70721191 63.4021875 -43.41442383 63.804375 -44.14306641 64.21875 C-70.35491446 78.97624528 -99.28236259 88.48448973 -129 93 C-130.65322266 93.26925293 -130.65322266 93.26925293 -132.33984375 93.54394531 C-144.55505356 95.3308452 -156.67698742 95.22657382 -169 95.125 C-171.14322495 95.11494248 -173.28645451 95.10582157 -175.4296875 95.09765625 C-180.61990792 95.07588003 -185.8099014 95.04150546 -191 95 C-191 94.67 -191 94.34 -191 94 C-190.2879541 93.96559814 -189.5759082 93.93119629 -188.84228516 93.89575195 C-128.70042862 90.79392103 -71.1077482 69.2311342 -26.8515625 27.6640625 C-24.17235981 25.16102656 -21.44093537 22.73319394 -18.6875 20.3125 C-14.41755554 16.47909938 -10.67939603 12.39292376 -7 8 C-5.69060499 6.4972888 -4.37816398 4.99722561 -3.0625 3.5 C-2.18271484 2.49453125 -2.18271484 2.49453125 -1.28515625 1.46875 C-0.86105469 0.9840625 -0.43695313 0.499375 0 0 Z " fill="#42A04A" transform="translate(424,417)"/>
<path d="M0 0 C0 0.33 0 0.66 0 1 C-0.88014771 1.08918701 -0.88014771 1.08918701 -1.77807617 1.18017578 C-37.94251908 4.99287212 -71.9035469 17.51891802 -98.59765625 42.7734375 C-101 45 -101 45 -103.609375 47.07421875 C-117.65504952 58.38878989 -128.43774313 76.88910493 -136 93 C-141.22951689 92.01868222 -144.95747257 88.74787334 -149.1875 85.6875 C-150.01958984 85.10548828 -150.85167969 84.52347656 -151.70898438 83.92382812 C-152.49982422 83.35470703 -153.29066406 82.78558594 -154.10546875 82.19921875 C-154.82887451 81.68190186 -155.55228027 81.16458496 -156.29760742 80.6315918 C-158.26970087 78.74151572 -158.79198954 77.71046969 -159 75 C-157.69697366 72.68689937 -156.40340089 70.72586491 -154.8125 68.625 C-154.13453369 67.70787231 -154.13453369 67.70787231 -153.44287109 66.7722168 C-133.63250751 40.34826032 -108.28603319 20.15727148 -77 9 C-75.79472656 8.55914062 -74.58945313 8.11828125 -73.34765625 7.6640625 C-49.26978493 -0.53583176 -25.11493042 -0.52864977 0 0 Z " fill="#E43936" transform="translate(247,95)"/>
</svg>
